<svg width="65" height="64" viewBox="0 0 65 64" fill="none" xmlns="http://www.w3.org/2000/svg">
<g id="codesandbox">
<path id="Vector" d="M56.5 42.6667V21.3334C56.499 20.3981 56.2522 19.4796 55.7841 18.6698C55.3161 17.8601 54.6433 17.1877 53.8333 16.7201L35.1667 6.0534C34.3559 5.5853 33.4362 5.33887 32.5 5.33887C31.5638 5.33887 30.6441 5.5853 29.8333 6.0534L11.1667 16.7201C10.3567 17.1877 9.68395 17.8601 9.2159 18.6698C8.74785 19.4796 8.50096 20.3981 8.5 21.3334V42.6667C8.50096 43.602 8.74785 44.5206 9.2159 45.3303C9.68395 46.14 10.3567 46.8124 11.1667 47.2801L29.8333 57.9467C30.6441 58.4148 31.5638 58.6613 32.5 58.6613C33.4362 58.6613 34.3559 58.4148 35.1667 57.9467L53.8333 47.2801C54.6433 46.8124 55.3161 46.14 55.7841 45.3303C56.2522 44.5206 56.499 43.602 56.5 42.6667Z" stroke="#F2F2F2" stroke-width="3" stroke-linecap="round" stroke-linejoin="round"/>
<path id="Vector_2" d="M20.5 11.2266L32.5 18.1599L44.5 11.2266" stroke="#F2F2F2" stroke-width="3" stroke-linecap="round" stroke-linejoin="round"/>
<path id="Vector_3" d="M20.5 52.7733V38.9333L8.5 32" stroke="#F2F2F2" stroke-width="3" stroke-linecap="round" stroke-linejoin="round"/>
<path id="Vector_4" d="M56.5 32L44.5 38.9333V52.7733" stroke="#F2F2F2" stroke-width="3" stroke-linecap="round" stroke-linejoin="round"/>
<path id="Vector_5" d="M9.22 18.5601L32.5 32.0267L55.78 18.5601" stroke="#F2F2F2" stroke-width="3" stroke-linecap="round" stroke-linejoin="round"/>
<path id="Vector_6" d="M32.5 58.88V32" stroke="#F2F2F2" stroke-width="3" stroke-linecap="round" stroke-linejoin="round"/>
</g>
</svg>
