<svg width="35" height="35" viewBox="0 0 35 35" fill="none" xmlns="http://www.w3.org/2000/svg">
<g id="icon">
<circle id="Ellipse 9" cx="17.5" cy="17.5" r="17.5" fill="white"/>
<g id="map-pin" clip-path="url(#clip0_121_2540)">
<path id="Vector" d="M23.5156 16.1632C23.5156 20.842 17.5 24.8524 17.5 24.8524C17.5 24.8524 11.4844 20.842 11.4844 16.1632C11.4844 14.5678 12.1182 13.0377 13.2463 11.9095C14.3745 10.7814 15.9046 10.1476 17.5 10.1476C19.0954 10.1476 20.6255 10.7814 21.7537 11.9095C22.8818 13.0377 23.5156 14.5678 23.5156 16.1632Z" stroke="#131623" stroke-width="2" stroke-linecap="round" stroke-linejoin="round"/>
<path id="Vector_2" d="M17.5001 18.1684C18.6075 18.1684 19.5053 17.2706 19.5053 16.1632C19.5053 15.0557 18.6075 14.158 17.5001 14.158C16.3926 14.158 15.4949 15.0557 15.4949 16.1632C15.4949 17.2706 16.3926 18.1684 17.5001 18.1684Z" stroke="#131623" stroke-width="2" stroke-linecap="round" stroke-linejoin="round"/>
</g>
</g>
<defs>
<clipPath id="clip0_121_2540">
<rect width="16.0417" height="16.0417" fill="white" transform="translate(9.47925 9.47917)"/>
</clipPath>
</defs>
</svg>
