<svg width="35" height="35" viewBox="0 0 35 35" fill="none" xmlns="http://www.w3.org/2000/svg">
<g id="icon">
<circle id="Ellipse 9" cx="17.5" cy="17.5" r="17.5" fill="white"/>
<g id="phone" clip-path="url(#clip0_121_2543)">
<path id="Vector" d="M24.1839 20.7885V22.7938C24.1847 22.9799 24.1465 23.1642 24.0719 23.3347C23.9974 23.5053 23.888 23.6584 23.7508 23.7842C23.6137 23.9101 23.4517 24.0059 23.2754 24.0655C23.099 24.1252 22.9122 24.1473 22.7268 24.1306C20.67 23.9071 18.6943 23.2042 16.9585 22.0786C15.3435 21.0523 13.9743 19.6831 12.948 18.0681C11.8184 16.3244 11.1154 14.3391 10.8961 12.2731C10.8793 12.0883 10.9013 11.902 10.9606 11.7261C11.0198 11.5502 11.115 11.3886 11.2401 11.2515C11.3652 11.1145 11.5175 11.0049 11.6873 10.93C11.8571 10.855 12.0406 10.8161 12.2262 10.816H14.2314C14.5558 10.8128 14.8702 10.9277 15.1162 11.1392C15.3621 11.3507 15.5228 11.6444 15.5682 11.9656C15.6528 12.6073 15.8098 13.2374 16.0361 13.8438C16.126 14.0831 16.1455 14.3431 16.0922 14.593C16.0388 14.843 15.915 15.0724 15.7353 15.2542L14.8864 16.103C15.8379 17.7764 17.2235 19.1619 18.8968 20.1135L19.7457 19.2646C19.9274 19.0849 20.1569 18.961 20.4068 18.9077C20.6568 18.8544 20.9168 18.8739 21.156 18.9638C21.7625 19.1901 22.3925 19.3471 23.0342 19.4317C23.3589 19.4775 23.6555 19.641 23.8674 19.8912C24.0794 20.1414 24.192 20.4607 24.1839 20.7885Z" stroke="#131623" stroke-width="2" stroke-linecap="round" stroke-linejoin="round"/>
</g>
</g>
<defs>
<clipPath id="clip0_121_2543">
<rect width="16.0417" height="16.0417" fill="white" transform="translate(9.479 9.47917)"/>
</clipPath>
</defs>
</svg>
